{
  "accessors": [
    {
      "bufferView": 2,
      "componentType": 5126,
      "count": 6194,
      "max": [
        0.16937097907066345,
        0.033318400382995605,
        0.3217940032482147
      ],
      "min": [
        -0.16996723413467407,
        -0.03331749141216278,
        -0.29464223980903625
      ],
      "type": "VEC3"
    },
    {
      "bufferView": 2,
      "byteOffset": 74328,
      "componentType": 5126,
      "count": 6194,
      "max": [
        1.0,
        1.0,
        0.9995654821395874
      ],
      "min": [
        -0.9999990463256836,
        -1.0,
        -0.9999737739562988
      ],
      "type": "VEC3"
    },
    {
      "bufferView": 1,
      "componentType": 5126,
      "count": 6194,
      "max": [
        0.0,
        0.0
      ],
      "min": [
        0.0,
        0.0
      ],
      "type": "VEC2"
    },
    {
      "bufferView": 0,
      "componentType": 5125,
      "count": 31164,
      "type": "SCALAR"
    },
    {
      "bufferView": 3,
      "componentType": 5126,
      "count": 100,
      "max": [
        4.166666507720947
      ],
      "min": [
        0.0416666679084301
      ],
      "type": "SCALAR"
    },
    {
      "bufferView": 5,
      "componentType": 5126,
      "count": 100,
      "max": [
        0.7071065306663513,
        0.7070214152336121,
        0.7070211172103882,
        0.7071070075035095
      ],
      "min": [
        0.010996687225997448,
        -0.7070214152336121,
        -0.7070211172103882,
        0.010996781289577484
      ],
      "type": "VEC4"
    },
    {
      "bufferView": 3,
      "byteOffset": 400,
      "componentType": 5126,
      "count": 63,
      "max": [
        4.166666507720947
      ],
      "min": [
        0.0416666679084301
      ],
      "type": "SCALAR"
    },
    {
      "bufferView": 4,
      "componentType": 5126,
      "count": 63,
      "max": [
        3.7762248516082764,
        4.93363618850708,
        3.7762246131896973
      ],
      "min": [
        3.776224374771118,
        4.933635234832764,
        3.7762246131896973
      ],
      "type": "VEC3"
    },
    {
      "bufferView": 3,
      "byteOffset": 652,
      "componentType": 5126,
      "count": 102,
      "max": [
        4.25
      ],
      "min": [
        0.0416666679084301
      ],
      "type": "SCALAR"
    },
    {
      "bufferView": 5,
      "byteOffset": 1600,
      "componentType": 5126,
      "count": 102,
      "max": [
        8.063420153803236e-08,
        0.5369832515716553,
        2.103943655377299e-15,
        1.0
      ],
      "min": [
        6.802245877679525e-08,
        -5.565508587324075e-08,
        -0.0,
        0.8435929417610168
      ],
      "type": "VEC4"
    }
  ],
  "animations": [
    {
      "channels": [
        {
          "sampler": 0,
          "target": {
            "node": 3,
            "path": "rotation"
          }
        },
        {
          "sampler": 1,
          "target": {
            "node": 3,
            "path": "scale"
          }
        }
      ],
      "name": "Action",
      "samplers": [
        {
          "input": 4,
          "interpolation": "LINEAR",
          "output": 5
        },
        {
          "input": 6,
          "interpolation": "LINEAR",
          "output": 7
        }
      ]
    },
    {
      "channels": [
        {
          "sampler": 0,
          "target": {
            "node": 3,
            "path": "rotation"
          }
        }
      ],
      "name": "dollerAction",
      "samplers": [
        {
          "input": 8,
          "interpolation": "LINEAR",
          "output": 9
        }
      ]
    }
  ],
  "asset": {
    "extras": {
      "author": "Akimix (https://sketchfab.com/Akimix)",
      "license": "CC-BY-4.0 (http://creativecommons.org/licenses/by/4.0/)",
      "source": "https://sketchfab.com/3d-models/dollar-7e8f93b656b742128c4601bf87c6bc07",
      "title": "DOLLAR"
    },
    "generator": "Sketchfab-15.13.0",
    "version": "2.0"
  },
  "bufferViews": [
    {
      "buffer": 0,
      "byteLength": 124656,
      "name": "floatBufferViews",
      "target": 34963
    },
    {
      "buffer": 0,
      "byteLength": 49552,
      "byteOffset": 124656,
      "byteStride": 8,
      "name": "floatBufferViews",
      "target": 34962
    },
    {
      "buffer": 0,
      "byteLength": 148656,
      "byteOffset": 174208,
      "byteStride": 12,
      "name": "floatBufferViews",
      "target": 34962
    },
    {
      "buffer": 0,
      "byteLength": 1060,
      "byteOffset": 322864,
      "name": "floatBufferViews"
    },
    {
      "buffer": 0,
      "byteLength": 756,
      "byteOffset": 323924,
      "byteStride": 12,
      "name": "floatBufferViews"
    },
    {
      "buffer": 0,
      "byteLength": 3232,
      "byteOffset": 324680,
      "byteStride": 16,
      "name": "floatBufferViews"
    }
  ],
  "buffers": [
    {
      "byteLength": 327912,
      "uri": "scene.bin"
    }
  ],
  "materials": [
    {
      "doubleSided": true,
      "name": "material",
      "pbrMetallicRoughness": {
        "baseColorFactor": [
          0.8,
          0.609807,
          0.0545892,
          1.0
        ],
        "roughnessFactor": 0.320317
      }
    }
  ],
  "meshes": [
    {
      "name": "Object_0",
      "primitives": [
        {
          "attributes": {
            "NORMAL": 1,
            "POSITION": 0,
            "TEXCOORD_0": 2
          },
          "indices": 3,
          "material": 0,
          "mode": 4
        }
      ]
    }
  ],
  "nodes": [
    {
      "children": [
        1
      ],
      "matrix": [
        1.0,
        0.0,
        0.0,
        0.0,
        0.0,
        2.220446049250313e-16,
        -1.0,
        0.0,
        0.0,
        1.0,
        2.220446049250313e-16,
        0.0,
        0.0,
        0.0,
        0.0,
        1.0
      ],
      "name": "Sketchfab_model"
    },
    {
      "children": [
        2
      ],
      "name": "root"
    },
    {
      "children": [
        3
      ],
      "matrix": [
        1.0,
        0.0,
        0.0,
        0.0,
        0.0,
        2.220446049250313e-16,
        1.0,
        0.0,
        0.0,
        -1.0,
        2.220446049250313e-16,
        0.0,
        0.0,
        0.0,
        0.0,
        1.0
      ],
      "name": "GLTF_SceneRootNode"
    },
    {
      "children": [
        4
      ],
      "name": "doller_0",
      "rotation": [
        0.7071065902709961,
        0.0,
        0.0,
        0.7071069478988647
      ],
      "scale": [
        3.7762246131896973,
        4.933635711669922,
        3.7762246131896973
      ],
      "translation": [
        0.04511547088623047,
        0.05819930136203766,
        0.031723394989967346
      ]
    },
    {
      "mesh": 0,
      "name": "Object_4"
    }
  ],
  "scene": 0,
  "scenes": [
    {
      "name": "Sketchfab_Scene",
      "nodes": [
        0
      ]
    }
  ]
}
