{
  "accessors": [
    {
      "bufferView": 2,
      "componentType": 5126,
      "count": 20406,
      "max": [
        0.4869999587535858,
        0.235276997089386,
        0.9924430251121521
      ],
      "min": [
        -0.4881679117679596,
        -0.231207013130188,
        -1.0023949146270752
      ],
      "type": "VEC3"
    },
    {
      "bufferView": 2,
      "byteOffset": 244872,
      "componentType": 5126,
      "count": 20406,
      "max": [
        0.999986469745636,
        0.9999696612358093,
        0.9999347925186157
      ],
      "min": [
        -0.9999809861183167,
        -0.9999459981918335,
        -0.9999176859855652
      ],
      "type": "VEC3"
    },
    {
      "bufferView": 1,
      "componentType": 5126,
      "count": 20406,
      "max": [
        0.99609375,
        0.9989728927612305
      ],
      "min": [
        0.0010271072387695313,
        0.0009765625
      ],
      "type": "VEC2"
    },
    {
      "bufferView": 1,
      "byteOffset": 163248,
      "componentType": 5126,
      "count": 20406,
      "max": [
        0.99609375,
        0.9989728927612305
      ],
      "min": [
        0.0010271072387695313,
        0.0009765625
      ],
      "type": "VEC2"
    },
    {
      "bufferView": 0,
      "componentType": 5125,
      "count": 90000,
      "type": "SCALAR"
    }
  ],
  "asset": {
    "extras": {
      "author": "3dUVpro (https://sketchfab.com/3dUVpro)",
      "license": "CC-BY-4.0 (http://creativecommons.org/licenses/by/4.0/)",
      "source": "https://sketchfab.com/3d-models/muscular-bodybuilder-14ed8d6bad064f759e47976ea9ada6a8",
      "title": "Muscular bodybuilder"
    },
    "generator": "Sketchfab-16.54.0",
    "version": "2.0"
  },
  "bufferViews": [
    {
      "buffer": 0,
      "byteLength": 360000,
      "name": "floatBufferViews",
      "target": 34963
    },
    {
      "buffer": 0,
      "byteLength": 326496,
      "byteOffset": 360000,
      "byteStride": 8,
      "name": "floatBufferViews",
      "target": 34962
    },
    {
      "buffer": 0,
      "byteLength": 489744,
      "byteOffset": 686496,
      "byteStride": 12,
      "name": "floatBufferViews",
      "target": 34962
    }
  ],
  "buffers": [
    {
      "byteLength": 1176240,
      "uri": "scene.bin"
    }
  ],
  "extensionsRequired": [
    "KHR_materials_pbrSpecularGlossiness"
  ],
  "extensionsUsed": [
    "KHR_materials_pbrSpecularGlossiness"
  ],
  "images": [
    {
      "uri": "textures/Material_1.001_diffuse.png"
    },
    {
      "uri": "textures/Material_1.001_specularGlossiness.png"
    },
    {
      "uri": "textures/Material_1.001_emissive.jpeg"
    },
    {
      "uri": "textures/Material_1.001_occlusion.png"
    }
  ],
  "materials": [
    {
      "alphaCutoff": 0.011842350426277836,
      "alphaMode": "MASK",
      "doubleSided": true,
      "emissiveFactor": [
        1.0,
        1.0,
        1.0
      ],
      "emissiveTexture": {
        "index": 2
      },
      "extensions": {
        "KHR_materials_pbrSpecularGlossiness": {
          "diffuseFactor": [
            1.0,
            1.0,
            1.0,
            1.0
          ],
          "diffuseTexture": {
            "index": 0
          },
          "glossinessFactor": 1.0,
          "specularFactor": [
            0.5280481768718059,
            0.5280481768718059,
            0.5280481768718059
          ],
          "specularGlossinessTexture": {
            "index": 1
          }
        }
      },
      "name": "Material_1.001",
      "occlusionTexture": {
        "index": 3,
        "strength": 0.9045747796908971
      }
    }
  ],
  "meshes": [
    {
      "name": "file1_Material_1.001_0",
      "primitives": [
        {
          "attributes": {
            "NORMAL": 1,
            "POSITION": 0,
            "TEXCOORD_0": 2,
            "TEXCOORD_1": 3
          },
          "indices": 4,
          "material": 0,
          "mode": 4
        }
      ]
    }
  ],
  "nodes": [
    {
      "children": [
        1
      ],
      "matrix": [
        1.0,
        0.0,
        0.0,
        0.0,
        0.0,
        2.220446049250313e-16,
        -1.0,
        0.0,
        0.0,
        1.0,
        2.220446049250313e-16,
        0.0,
        0.0,
        0.0,
        0.0,
        1.0
      ],
      "name": "Sketchfab_model"
    },
    {
      "children": [
        2
      ],
      "matrix": [
        0.009999999776482582,
        0.0,
        0.0,
        0.0,
        0.0,
        0.0,
        0.009999999776482582,
        0.0,
        0.0,
        -0.009999999776482582,
        0.0,
        0.0,
        0.0,
        0.0,
        0.0,
        1.0
      ],
      "name": "Create_a_cultist_mode_1112014024_refine.fbx"
    },
    {
      "children": [
        3
      ],
      "name": "RootNode"
    },
    {
      "children": [
        4
      ],
      "matrix": [
        100.0,
        0.0,
        0.0,
        0.0,
        0.0,
        -4.371139006309477e-06,
        -99.9999999999999,
        0.0,
        0.0,
        99.9999999999999,
        -4.371139006309477e-06,
        0.0,
        0.0,
        0.0,
        0.0,
        1.0
      ],
      "name": "file1"
    },
    {
      "mesh": 0,
      "name": "file1_Material_1.001_0"
    }
  ],
  "samplers": [
    {
      "magFilter": 9729,
      "minFilter": 9987,
      "wrapS": 10497,
      "wrapT": 10497
    }
  ],
  "scene": 0,
  "scenes": [
    {
      "name": "Sketchfab_Scene",
      "nodes": [
        0
      ]
    }
  ],
  "textures": [
    {
      "sampler": 0,
      "source": 0
    },
    {
      "sampler": 0,
      "source": 1
    },
    {
      "sampler": 0,
      "source": 2
    },
    {
      "sampler": 0,
      "source": 3
    }
  ]
}
