{
  "accessors": [
    {
      "bufferView": 2,
      "componentType": 5126,
      "count": 10862,
      "max": [
        208.39932250976563,
        468.7100830078125,
        226.62115478515625
      ],
      "min": [
        -210.0312042236328,
        36.40138626098633,
        -761.967529296875
      ],
      "type": "VEC3"
    },
    {
      "bufferView": 2,
      "byteOffset": 130344,
      "componentType": 5126,
      "count": 10862,
      "max": [
        0.9999052882194519,
        0.999916136264801,
        0.999908983707428
      ],
      "min": [
        -0.999534547328949,
        -1.0,
        -0.9998201131820679
      ],
      "type": "VEC3"
    },
    {
      "bufferView": 1,
      "componentType": 5126,
      "count": 10862,
      "max": [
        0.9875281453132629,
        0.9900000095367432
      ],
      "min": [
        0.009999999776482582,
        0.009999999776482582
      ],
      "type": "VEC2"
    },
    {
      "bufferView": 0,
      "componentType": 5125,
      "count": 48612,
      "type": "SCALAR"
    }
  ],
  "asset": {
    "extras": {
      "author": "gelmi.com.br (https://sketchfab.com/rodrigogelmi)",
      "license": "CC-BY-4.0 (http://creativecommons.org/licenses/by/4.0/)",
      "source": "https://sketchfab.com/3d-models/charging-bull-3c0ad02af35d490b8c4163b3bbab905e",
      "title": "Charging Bull"
    },
    "generator": "Sketchfab-12.66.0",
    "version": "2.0"
  },
  "bufferViews": [
    {
      "buffer": 0,
      "byteLength": 194448,
      "name": "floatBufferViews",
      "target": 34963
    },
    {
      "buffer": 0,
      "byteLength": 86896,
      "byteOffset": 194448,
      "byteStride": 8,
      "name": "floatBufferViews",
      "target": 34962
    },
    {
      "buffer": 0,
      "byteLength": 260688,
      "byteOffset": 281344,
      "byteStride": 12,
      "name": "floatBufferViews",
      "target": 34962
    }
  ],
  "buffers": [
    {
      "byteLength": 542032,
      "uri": "scene.bin"
    }
  ],
  "images": [
    {
      "uri": "textures/material_baseColor.jpeg"
    },
    {
      "uri": "textures/material_metallicRoughness.png"
    }
  ],
  "materials": [
    {
      "doubleSided": true,
      "name": "material",
      "pbrMetallicRoughness": {
        "baseColorFactor": [
          0.5732463260553661,
          0.5732463260553661,
          0.5732463260553661,
          1.0
        ],
        "baseColorTexture": {
          "index": 0
        },
        "metallicFactor": 0.5854066723820295,
        "metallicRoughnessTexture": {
          "index": 1
        },
        "roughnessFactor": 0.7434911746286534
      }
    }
  ],
  "meshes": [
    {
      "name": "0",
      "primitives": [
        {
          "attributes": {
            "NORMAL": 1,
            "POSITION": 0,
            "TEXCOORD_0": 2
          },
          "indices": 3,
          "material": 0,
          "mode": 4
        }
      ]
    }
  ],
  "nodes": [
    {
      "children": [
        1
      ],
      "matrix": [
        1.0,
        0.0,
        0.0,
        0.0,
        0.0,
        2.220446049250313e-16,
        -1.0,
        0.0,
        0.0,
        1.0,
        2.220446049250313e-16,
        0.0,
        0.0,
        0.0,
        0.0,
        1.0
      ],
      "name": "Sketchfab_model"
    },
    {
      "children": [
        2
      ],
      "matrix": [
        1.0,
        0.0,
        0.0,
        0.0,
        0.0,
        0.0,
        1.0,
        0.0,
        0.0,
        -1.0,
        0.0,
        0.0,
        0.0,
        0.0,
        0.0,
        1.0
      ],
      "name": "258fd7fc3f994dcf9c254ac468def299.fbx"
    },
    {
      "children": [
        3,
        5,
        7
      ],
      "name": "RootNode"
    },
    {
      "children": [
        4
      ],
      "name": "LOW"
    },
    {
      "mesh": 0,
      "name": "0"
    },
    {
      "children": [
        6
      ],
      "matrix": [
        0.1348985634273523,
        -0.12724327018933185,
        -0.9826553453661977,
        0.0,
        0.053170130621106565,
        0.9912209880941215,
        -0.12105325262646938,
        0.0,
        0.9894318141211,
        -0.035918003191130234,
        0.1404798286295612,
        0.0,
        -254.76901245117188,
        396.0076599121094,
        1406.8524169921875,
        1.0
      ],
      "name": "Camera"
    },
    {
      "name": "Object_6"
    },
    {
      "children": [
        8
      ],
      "matrix": [
        0.7071067811865476,
        5.551115123125783e-17,
        0.7071067811865475,
        0.0,
        -0.6123724356957945,
        0.5000000000000001,
        0.6123724356957945,
        0.0,
        -0.35355339059327373,
        -0.8660254037844386,
        0.35355339059327395,
        0.0,
        -200.0,
        200.0,
        200.0,
        1.0
      ],
      "name": "Directional Light"
    },
    {
      "children": [
        9
      ],
      "matrix": [
        1.0,
        0.0,
        0.0,
        0.0,
        0.0,
        2.220446049250313e-16,
        1.0,
        0.0,
        0.0,
        -1.0,
        2.220446049250313e-16,
        0.0,
        0.0,
        0.0,
        0.0,
        1.0
      ],
      "name": "Object_8"
    },
    {
      "name": "Object_9"
    }
  ],
  "samplers": [
    {
      "magFilter": 9729,
      "minFilter": 9987,
      "wrapS": 10497,
      "wrapT": 10497
    }
  ],
  "scene": 0,
  "scenes": [
    {
      "name": "Sketchfab_Scene",
      "nodes": [
        0
      ]
    }
  ],
  "textures": [
    {
      "sampler": 0,
      "source": 0
    },
    {
      "sampler": 0,
      "source": 1
    }
  ]
}
