{
  "accessors": [
    {
      "bufferView": 2,
      "componentType": 5126,
      "count": 37145,
      "max": [
        64.91442108154297,
        137.1263427734375,
        131.43557739257813
      ],
      "min": [
        -64.91442108154297,
        -147.71710205078125,
        3.635885000228882
      ],
      "type": "VEC3"
    },
    {
      "bufferView": 2,
      "byteOffset": 445740,
      "componentType": 5126,
      "count": 37145,
      "max": [
        1.0,
        1.0,
        1.0
      ],
      "min": [
        -1.0,
        -1.0,
        -1.0
      ],
      "type": "VEC3"
    },
    {
      "bufferView": 3,
      "componentType": 5126,
      "count": 37145,
      "max": [
        1.0,
        1.0,
        1.0,
        1.0
      ],
      "min": [
        -1.0,
        -1.0,
        -1.0,
        -1.0
      ],
      "type": "VEC4"
    },
    {
      "bufferView": 1,
      "componentType": 5126,
      "count": 37145,
      "max": [
        0.9993460178375244,
        0.9984920024871826
      ],
      "min": [
        0.00046099998871795833,
        0.0005189999938011169
      ],
      "type": "VEC2"
    },
    {
      "bufferView": 0,
      "componentType": 5125,
      "count": 90249,
      "type": "SCALAR"
    },
    {
      "bufferView": 2,
      "byteOffset": 891480,
      "componentType": 5126,
      "count": 1836,
      "max": [
        2.516402244567871,
        0.16789016127586365,
        1.4901161193847656e-08
      ],
      "min": [
        -0.1543889045715332,
        -0.3311389684677124,
        -1.3124279975891113
      ],
      "type": "VEC3"
    },
    {
      "bufferView": 2,
      "byteOffset": 913512,
      "componentType": 5126,
      "count": 1836,
      "max": [
        0.9999129772186279,
        0.9999995827674866,
        1.0
      ],
      "min": [
        -0.9999412894248962,
        -0.9999173879623413,
        -1.0
      ],
      "type": "VEC3"
    },
    {
      "bufferView": 3,
      "byteOffset": 594320,
      "componentType": 5126,
      "count": 1836,
      "max": [
        0.9999990463256836,
        0.9999986886978149,
        1.0,
        1.0
      ],
      "min": [
        -0.9978854060173035,
        -0.9999886155128479,
        -1.0,
        -1.0
      ],
      "type": "VEC4"
    },
    {
      "bufferView": 1,
      "byteOffset": 297160,
      "componentType": 5126,
      "count": 1836,
      "max": [
        0.1720367670059204,
        0.9998266100883484
      ],
      "min": [
        0.0008163552265614271,
        -1.410049299011007e-05
      ],
      "type": "VEC2"
    },
    {
      "bufferView": 0,
      "byteOffset": 360996,
      "componentType": 5125,
      "count": 6000,
      "type": "SCALAR"
    }
  ],
  "asset": {
    "extras": {
      "author": "Comrade1280 (https://sketchfab.com/comrade1280)",
      "license": "CC-BY-4.0 (http://creativecommons.org/licenses/by/4.0/)",
      "source": "https://sketchfab.com/3d-models/kv2-lowpoly-b146e3a194bb47b698795ff096be21e7",
      "title": "Kv2 lowpoly"
    },
    "generator": "Sketchfab-12.68.0",
    "version": "2.0"
  },
  "bufferViews": [
    {
      "buffer": 0,
      "byteLength": 384996,
      "name": "floatBufferViews",
      "target": 34963
    },
    {
      "buffer": 0,
      "byteLength": 311848,
      "byteOffset": 384996,
      "byteStride": 8,
      "name": "floatBufferViews",
      "target": 34962
    },
    {
      "buffer": 0,
      "byteLength": 935544,
      "byteOffset": 696844,
      "byteStride": 12,
      "name": "floatBufferViews",
      "target": 34962
    },
    {
      "buffer": 0,
      "byteLength": 623696,
      "byteOffset": 1632388,
      "byteStride": 16,
      "name": "floatBufferViews",
      "target": 34962
    }
  ],
  "buffers": [
    {
      "byteLength": 2256084,
      "uri": "scene.bin"
    }
  ],
  "images": [
    {
      "uri": "textures/Material_25_baseColor.jpeg"
    },
    {
      "uri": "textures/Material_25_metallicRoughness.png"
    },
    {
      "uri": "textures/Material_25_normal.png"
    },
    {
      "uri": "textures/02_-_Default_baseColor.png"
    },
    {
      "uri": "textures/02_-_Default_metallicRoughness.png"
    },
    {
      "uri": "textures/02_-_Default_normal.png"
    }
  ],
  "materials": [
    {
      "name": "Material_25",
      "normalTexture": {
        "index": 2
      },
      "occlusionTexture": {
        "index": 1
      },
      "pbrMetallicRoughness": {
        "baseColorTexture": {
          "index": 0
        },
        "metallicRoughnessTexture": {
          "index": 1
        }
      }
    },
    {
      "alphaCutoff": 0.6846417683,
      "alphaMode": "MASK",
      "doubleSided": true,
      "name": "02_-_Default",
      "normalTexture": {
        "index": 5
      },
      "occlusionTexture": {
        "index": 4,
        "strength": 0.9529344512
      },
      "pbrMetallicRoughness": {
        "baseColorTexture": {
          "index": 3
        },
        "metallicFactor": 0.9163490854,
        "metallicRoughnessTexture": {
          "index": 4
        },
        "roughnessFactor": 0.6541539634
      }
    }
  ],
  "meshes": [
    {
      "name": "Object_0",
      "primitives": [
        {
          "attributes": {
            "NORMAL": 1,
            "POSITION": 0,
            "TANGENT": 2,
            "TEXCOORD_0": 3
          },
          "indices": 4,
          "material": 0,
          "mode": 4
        }
      ]
    },
    {
      "name": "Object_1",
      "primitives": [
        {
          "attributes": {
            "NORMAL": 6,
            "POSITION": 5,
            "TANGENT": 7,
            "TEXCOORD_0": 8
          },
          "indices": 9,
          "material": 1,
          "mode": 4
        }
      ]
    }
  ],
  "nodes": [
    {
      "children": [
        1
      ],
      "matrix": [
        0.023679133504629135,
        0.0,
        0.0,
        0.0,
        0.0,
        5.257823844002448e-18,
        -0.023679133504629135,
        0.0,
        0.0,
        0.023679133504629135,
        5.257823844002448e-18,
        0.0,
        0.0,
        0.0,
        0.0,
        1.0
      ],
      "name": "Sketchfab_model"
    },
    {
      "children": [
        2
      ],
      "matrix": [
        1.0,
        0.0,
        0.0,
        0.0,
        0.0,
        0.0,
        1.0,
        0.0,
        0.0,
        -1.0,
        0.0,
        0.0,
        0.0,
        0.0,
        0.0,
        1.0
      ],
      "name": "e74faa7942cb4933874334d2d3b30691.fbx"
    },
    {
      "children": [
        3,
        5
      ],
      "name": "RootNode"
    },
    {
      "children": [
        4
      ],
      "matrix": [
        1.0,
        0.0,
        0.0,
        0.0,
        0.0,
        2.220446049250313e-16,
        -1.0,
        0.0,
        0.0,
        1.0,
        2.220446049250313e-16,
        0.0,
        0.0,
        0.0,
        0.0,
        1.0
      ],
      "name": "kv2"
    },
    {
      "mesh": 0,
      "name": "Object_4"
    },
    {
      "children": [
        6
      ],
      "matrix": [
        -4.371138873082718e-06,
        1.7029652329340398e-14,
        -100.0,
        0.0,
        4.371138880862542e-06,
        100.0,
        -1.7403889848846948e-13,
        0.0,
        100.00000000000001,
        -4.37113888086255e-06,
        -4.371138873082722e-06,
        0.0,
        0.0,
        0.0,
        0.0,
        1.0
      ],
      "name": "kv2track"
    },
    {
      "children": [
        7
      ],
      "matrix": [
        1.0,
        0.0,
        -0.0,
        0.0,
        0.0,
        1.0,
        0.0,
        0.0,
        0.0,
        0.0,
        1.0,
        0.0,
        -1.16902756690979,
        0.3429611027240753,
        0.6562139987945557,
        1.0
      ],
      "name": "Object_6"
    },
    {
      "mesh": 1,
      "name": "Object_7"
    }
  ],
  "samplers": [
    {
      "magFilter": 9729,
      "minFilter": 9987,
      "wrapS": 10497,
      "wrapT": 10497
    }
  ],
  "scene": 0,
  "scenes": [
    {
      "name": "Sketchfab_Scene",
      "nodes": [
        0
      ]
    }
  ],
  "textures": [
    {
      "sampler": 0,
      "source": 0
    },
    {
      "sampler": 0,
      "source": 1
    },
    {
      "sampler": 0,
      "source": 2
    },
    {
      "sampler": 0,
      "source": 3
    },
    {
      "sampler": 0,
      "source": 4
    },
    {
      "sampler": 0,
      "source": 5
    }
  ]
}
