{
  "accessors": [
    {
      "bufferView": 1,
      "componentType": 5126,
      "count": 65532,
      "max": [
        38.068946838378906,
        81.24430847167969,
        172.89923095703125
      ],
      "min": [
        -38.068946838378906,
        -81.02989196777344,
        35.86601257324219
      ],
      "type": "VEC3"
    },
    {
      "bufferView": 1,
      "byteOffset": 786384,
      "componentType": 5126,
      "count": 65532,
      "max": [
        0.9999958276748657,
        1.0,
        0.9999971389770508
      ],
      "min": [
        -0.9999957084655762,
        -1.0,
        -0.9999883770942688
      ],
      "type": "VEC3"
    },
    {
      "bufferView": 0,
      "componentType": 5125,
      "count": 313839,
      "type": "SCALAR"
    },
    {
      "bufferView": 1,
      "byteOffset": 1572768,
      "componentType": 5126,
      "count": 65532,
      "max": [
        31.25395393371582,
        70.35505676269531,
        168.8911895751953
      ],
      "min": [
        -26.228389739990234,
        -81.24177551269531,
        37.47021484375
      ],
      "type": "VEC3"
    },
    {
      "bufferView": 1,
      "byteOffset": 2359152,
      "componentType": 5126,
      "count": 65532,
      "max": [
        0.9999972581863403,
        0.9999443292617798,
        0.9996806979179382
      ],
      "min": [
        -0.9999968409538269,
        -0.999826967716217,
        -0.9999597072601318
      ],
      "type": "VEC3"
    },
    {
      "bufferView": 0,
      "byteOffset": 1255356,
      "componentType": 5125,
      "count": 318615,
      "type": "SCALAR"
    },
    {
      "bufferView": 1,
      "byteOffset": 3145536,
      "componentType": 5126,
      "count": 65532,
      "max": [
        31.2143497467041,
        70.48866271972656,
        169.0125732421875
      ],
      "min": [
        -26.373254776000977,
        -81.15544128417969,
        32.45111083984375
      ],
      "type": "VEC3"
    },
    {
      "bufferView": 1,
      "byteOffset": 3931920,
      "componentType": 5126,
      "count": 65532,
      "max": [
        0.9998924136161804,
        0.9998189806938171,
        0.9997952580451965
      ],
      "min": [
        -0.9999882578849792,
        -0.9999570250511169,
        -0.9999138712882996
      ],
      "type": "VEC3"
    },
    {
      "bufferView": 0,
      "byteOffset": 2529816,
      "componentType": 5125,
      "count": 308604,
      "type": "SCALAR"
    },
    {
      "bufferView": 1,
      "byteOffset": 4718304,
      "componentType": 5126,
      "count": 65532,
      "max": [
        36.74489212036133,
        81.24430847167969,
        171.28773498535156
      ],
      "min": [
        -38.068946838378906,
        -81.24430847167969,
        0.01644258014857769
      ],
      "type": "VEC3"
    },
    {
      "bufferView": 1,
      "byteOffset": 5504688,
      "componentType": 5126,
      "count": 65532,
      "max": [
        0.999976396560669,
        1.0,
        0.9996441006660461
      ],
      "min": [
        -0.999998927116394,
        -1.0,
        -0.9999883770942688
      ],
      "type": "VEC3"
    },
    {
      "bufferView": 0,
      "byteOffset": 3764232,
      "componentType": 5125,
      "count": 260490,
      "type": "SCALAR"
    },
    {
      "bufferView": 1,
      "byteOffset": 6291072,
      "componentType": 5126,
      "count": 64499,
      "max": [
        31.204763412475586,
        70.48751831054688,
        168.82240295410156
      ],
      "min": [
        -26.301172256469727,
        -81.21939086914063,
        0.0
      ],
      "type": "VEC3"
    },
    {
      "bufferView": 1,
      "byteOffset": 7065060,
      "componentType": 5126,
      "count": 64499,
      "max": [
        0.9999653100967407,
        1.0,
        0.9993430376052856
      ],
      "min": [
        -0.99998939037323,
        -0.9999744892120361,
        -0.9999278783798218
      ],
      "type": "VEC3"
    },
    {
      "bufferView": 0,
      "byteOffset": 4806192,
      "componentType": 5125,
      "count": 264333,
      "type": "SCALAR"
    }
  ],
  "asset": {
    "extras": {
      "author": "Paul Marx (https://sketchfab.com/my3dscanner)",
      "license": "CC-BY-4.0 (http://creativecommons.org/licenses/by/4.0/)",
      "source": "https://sketchfab.com/3d-models/el-futbolista-ba68f0fbecf4497c846244f56f0461be",
      "title": "El Futbolista"
    },
    "generator": "Sketchfab-12.68.0",
    "version": "2.0"
  },
  "bufferViews": [
    {
      "buffer": 0,
      "byteLength": 5863524,
      "name": "floatBufferViews",
      "target": 34963
    },
    {
      "buffer": 0,
      "byteLength": 7839048,
      "byteOffset": 5863524,
      "byteStride": 12,
      "name": "floatBufferViews",
      "target": 34962
    }
  ],
  "buffers": [
    {
      "byteLength": 13702572,
      "uri": "scene.bin"
    }
  ],
  "materials": [
    {
      "doubleSided": true,
      "name": "Scene_-_Root",
      "pbrMetallicRoughness": {
        "metallicFactor": 0.0,
        "roughnessFactor": 0.6
      }
    }
  ],
  "meshes": [
    {
      "name": "Object_0",
      "primitives": [
        {
          "attributes": {
            "NORMAL": 1,
            "POSITION": 0
          },
          "indices": 2,
          "material": 0,
          "mode": 4
        }
      ]
    },
    {
      "name": "Object_1",
      "primitives": [
        {
          "attributes": {
            "NORMAL": 4,
            "POSITION": 3
          },
          "indices": 5,
          "material": 0,
          "mode": 4
        }
      ]
    },
    {
      "name": "Object_2",
      "primitives": [
        {
          "attributes": {
            "NORMAL": 7,
            "POSITION": 6
          },
          "indices": 8,
          "material": 0,
          "mode": 4
        }
      ]
    },
    {
      "name": "Object_3",
      "primitives": [
        {
          "attributes": {
            "NORMAL": 10,
            "POSITION": 9
          },
          "indices": 11,
          "material": 0,
          "mode": 4
        }
      ]
    },
    {
      "name": "Object_4",
      "primitives": [
        {
          "attributes": {
            "NORMAL": 13,
            "POSITION": 12
          },
          "indices": 14,
          "material": 0,
          "mode": 4
        }
      ]
    }
  ],
  "nodes": [
    {
      "children": [
        1
      ],
      "matrix": [
        0.0,
        2.220446049250313e-16,
        -1.0,
        0.0,
        0.0,
        -1.0,
        -2.220446049250313e-16,
        0.0,
        -1.0,
        0.0,
        0.0,
        0.0,
        86.44978332519531,
        86.4496841430664,
        0.00010299679708724023,
        1.0
      ],
      "name": "Sketchfab_model"
    },
    {
      "children": [
        2,
        3,
        4,
        5,
        6
      ],
      "name": "NewRonaldoBase.stl.cleaner.materialmerger.gles"
    },
    {
      "mesh": 0,
      "name": "Object_2"
    },
    {
      "mesh": 1,
      "name": "Object_3"
    },
    {
      "mesh": 2,
      "name": "Object_4"
    },
    {
      "mesh": 3,
      "name": "Object_5"
    },
    {
      "mesh": 4,
      "name": "Object_6"
    }
  ],
  "scene": 0,
  "scenes": [
    {
      "name": "Sketchfab_Scene",
      "nodes": [
        0
      ]
    }
  ]
}
