{
  "accessors": [
    {
      "bufferView": 2,
      "componentType": 5126,
      "count": 2180,
      "max": [
        301.0419616699219,
        348.0268859863281,
        496.3298645019531
      ],
      "min": [
        -301.0465087890625,
        -349.8217468261719,
        -502.977783203125
      ],
      "type": "VEC3"
    },
    {
      "bufferView": 2,
      "byteOffset": 26160,
      "componentType": 5126,
      "count": 2180,
      "max": [
        0.9994361996650696,
        0.9987277388572693,
        0.9999556541442871
      ],
      "min": [
        -0.9999771118164063,
        -0.9995532631874084,
        -0.9999735951423645
      ],
      "type": "VEC3"
    },
    {
      "bufferView": 3,
      "componentType": 5126,
      "count": 2180,
      "max": [
        0.9986401796340942,
        0.8728122711181641,
        0.9999862909317017,
        1.0
      ],
      "min": [
        -0.9995877146720886,
        -0.9660277962684631,
        -0.9998509287834167,
        1.0
      ],
      "type": "VEC4"
    },
    {
      "bufferView": 1,
      "componentType": 5126,
      "count": 2180,
      "max": [
        0.9184867143630981,
        0.99985671043396
      ],
      "min": [
        0.0001432254066457972,
        0.0001432254066457972
      ],
      "type": "VEC2"
    },
    {
      "bufferView": 1,
      "byteOffset": 17440,
      "componentType": 5126,
      "count": 2180,
      "max": [
        0.9184867143630981,
        0.99985671043396
      ],
      "min": [
        0.0001432254066457972,
        0.0001432254066457972
      ],
      "type": "VEC2"
    },
    {
      "bufferView": 1,
      "byteOffset": 34880,
      "componentType": 5126,
      "count": 2180,
      "max": [
        0.9184867143630981,
        0.99985671043396
      ],
      "min": [
        0.0001432254066457972,
        0.0001432254066457972
      ],
      "type": "VEC2"
    },
    {
      "bufferView": 1,
      "byteOffset": 52320,
      "componentType": 5126,
      "count": 2180,
      "max": [
        0.9184867143630981,
        0.99985671043396
      ],
      "min": [
        0.0001432254066457972,
        0.0001432254066457972
      ],
      "type": "VEC2"
    },
    {
      "bufferView": 0,
      "componentType": 5125,
      "count": 12192,
      "type": "SCALAR"
    }
  ],
  "asset": {
    "extras": {
      "author": "Incg5764 (https://sketchfab.com/incg5764)",
      "license": "CC-BY-4.0 (http://creativecommons.org/licenses/by/4.0/)",
      "source": "https://sketchfab.com/3d-models/boxing-glove-5b464201104949e09f77f2d1cf8b60c3",
      "title": "Boxing Glove"
    },
    "generator": "Sketchfab-15.1.0",
    "version": "2.0"
  },
  "bufferViews": [
    {
      "buffer": 0,
      "byteLength": 48768,
      "name": "floatBufferViews",
      "target": 34963
    },
    {
      "buffer": 0,
      "byteLength": 69760,
      "byteOffset": 48768,
      "byteStride": 8,
      "name": "floatBufferViews",
      "target": 34962
    },
    {
      "buffer": 0,
      "byteLength": 52320,
      "byteOffset": 118528,
      "byteStride": 12,
      "name": "floatBufferViews",
      "target": 34962
    },
    {
      "buffer": 0,
      "byteLength": 34880,
      "byteOffset": 170848,
      "byteStride": 16,
      "name": "floatBufferViews",
      "target": 34962
    }
  ],
  "buffers": [
    {
      "byteLength": 205728,
      "uri": "scene.bin"
    }
  ],
  "images": [
    {
      "uri": "textures/main_baseColor.jpeg"
    },
    {
      "uri": "textures/main_metallicRoughness.png"
    },
    {
      "uri": "textures/main_normal.png"
    }
  ],
  "materials": [
    {
      "doubleSided": true,
      "name": "main",
      "normalTexture": {
        "index": 2
      },
      "pbrMetallicRoughness": {
        "baseColorTexture": {
          "index": 0
        },
        "metallicFactor": 0.0,
        "metallicRoughnessTexture": {
          "index": 1
        }
      }
    }
  ],
  "meshes": [
    {
      "name": "Object_0",
      "primitives": [
        {
          "attributes": {
            "NORMAL": 1,
            "POSITION": 0,
            "TANGENT": 2,
            "TEXCOORD_0": 3,
            "TEXCOORD_1": 4,
            "TEXCOORD_2": 5,
            "TEXCOORD_3": 6
          },
          "indices": 7,
          "material": 0,
          "mode": 4
        }
      ]
    }
  ],
  "nodes": [
    {
      "children": [
        1
      ],
      "matrix": [
        1.0,
        0.0,
        0.0,
        0.0,
        0.0,
        2.220446049250313e-16,
        -1.0,
        0.0,
        0.0,
        1.0,
        2.220446049250313e-16,
        0.0,
        0.0,
        0.0,
        0.0,
        1.0
      ],
      "name": "Sketchfab_model"
    },
    {
      "children": [
        2
      ],
      "name": "root"
    },
    {
      "children": [
        3
      ],
      "matrix": [
        1.0,
        0.0,
        0.0,
        0.0,
        0.0,
        2.220446049250313e-16,
        1.0,
        0.0,
        0.0,
        -1.0,
        2.220446049250313e-16,
        0.0,
        0.0,
        0.0,
        0.0,
        1.0
      ],
      "name": "GLTF_SceneRootNode"
    },
    {
      "children": [
        4
      ],
      "matrix": [
        0.009999999776482582,
        0.0,
        0.0,
        0.0,
        0.0,
        -1.6858739316326353e-09,
        0.00999999977648244,
        0.0,
        0.0,
        -0.00999999977648244,
        -1.6858739316326353e-09,
        0.0,
        0.0,
        0.0,
        0.0,
        1.0
      ],
      "name": "Glove_0"
    },
    {
      "mesh": 0,
      "name": "Object_4"
    }
  ],
  "samplers": [
    {
      "magFilter": 9729,
      "minFilter": 9987,
      "wrapS": 10497,
      "wrapT": 10497
    }
  ],
  "scene": 0,
  "scenes": [
    {
      "name": "Sketchfab_Scene",
      "nodes": [
        0
      ]
    }
  ],
  "textures": [
    {
      "sampler": 0,
      "source": 0
    },
    {
      "sampler": 0,
      "source": 1
    },
    {
      "sampler": 0,
      "source": 2
    }
  ]
}
